<?xml version="1.0" encoding="us-ascii" standalone="no"?><svg xmlns="http://www.w3.org/2000/svg" xmlns:xlink="http://www.w3.org/1999/xlink" contentStyleType="text/css" height="485px" preserveAspectRatio="none" style="width:693px;height:485px;background:#FFFFFF;" version="1.1" viewBox="0 0 693 485" width="693px" zoomAndPan="magnify"><defs/><g><text fill="#000000" font-family="sans-serif" font-size="14" font-weight="bold" lengthAdjust="spacing" textLength="167" x="262.5" y="27.9951">Replication: Full Sync</text><line style="stroke:#181818;stroke-width:0.5;stroke-dasharray:5.0,5.0;" x1="37" x2="37" y1="73.5938" y2="449.9219"/><line style="stroke:#181818;stroke-width:0.5;stroke-dasharray:5.0,5.0;" x1="368" x2="368" y1="73.5938" y2="449.9219"/><rect fill="#E2E2F0" height="30.2969" rx="2.5" ry="2.5" style="stroke:#181818;stroke-width:0.5;" width="64" x="5" y="42.2969"/><text fill="#000000" font-family="sans-serif" font-size="14" lengthAdjust="spacing" textLength="50" x="12" y="62.292">Replica</text><rect fill="#E2E2F0" height="30.2969" rx="2.5" ry="2.5" style="stroke:#181818;stroke-width:0.5;" width="64" x="5" y="448.9219"/><text fill="#000000" font-family="sans-serif" font-size="14" lengthAdjust="spacing" textLength="50" x="12" y="468.917">Replica</text><rect fill="#E2E2F0" height="30.2969" rx="2.5" ry="2.5" style="stroke:#181818;stroke-width:0.5;" width="64" x="336" y="42.2969"/><text fill="#000000" font-family="sans-serif" font-size="14" lengthAdjust="spacing" textLength="50" x="343" y="62.292">Primary</text><rect fill="#E2E2F0" height="30.2969" rx="2.5" ry="2.5" style="stroke:#181818;stroke-width:0.5;" width="64" x="336" y="448.9219"/><text fill="#000000" font-family="sans-serif" font-size="14" lengthAdjust="spacing" textLength="50" x="343" y="468.917">Primary</text><polygon fill="#181818" points="356,100.7266,366,104.7266,356,108.7266,360,104.7266" style="stroke:#181818;stroke-width:1.0;"/><line style="stroke:#181818;stroke-width:1.0;" x1="37" x2="362" y1="104.7266" y2="104.7266"/><text fill="#000000" font-family="sans-serif" font-size="13" lengthAdjust="spacing" textLength="218" x="44" y="99.6606">Send changes since transaction N</text><polygon fill="#181818" points="48,129.8594,38,133.8594,48,137.8594,44,133.8594" style="stroke:#181818;stroke-width:1.0;"/><line style="stroke:#181818;stroke-width:1.0;" x1="42" x2="367" y1="133.8594" y2="133.8594"/><text fill="#000000" font-family="sans-serif" font-size="13" lengthAdjust="spacing" textLength="275" x="54" y="128.7935">Failed to fetch changes since transaction N</text><polygon fill="#181818" points="356,158.9922,366,162.9922,356,166.9922,360,162.9922" style="stroke:#181818;stroke-width:1.0;"/><line style="stroke:#181818;stroke-width:1.0;" x1="37" x2="362" y1="162.9922" y2="162.9922"/><text fill="#000000" font-family="sans-serif" font-size="13" lengthAdjust="spacing" textLength="163" x="44" y="157.9263">Send the entire database</text><line style="stroke:#181818;stroke-width:1.0;stroke-dasharray:2.0,2.0;" x1="368" x2="410" y1="192.125" y2="192.125"/><line style="stroke:#181818;stroke-width:1.0;stroke-dasharray:2.0,2.0;" x1="410" x2="410" y1="192.125" y2="205.125"/><line style="stroke:#181818;stroke-width:1.0;stroke-dasharray:2.0,2.0;" x1="369" x2="410" y1="205.125" y2="205.125"/><polygon fill="#181818" points="379,201.125,369,205.125,379,209.125,375,205.125" style="stroke:#181818;stroke-width:1.0;"/><text fill="#000000" font-family="sans-serif" font-size="13" lengthAdjust="spacing" textLength="311" x="375" y="187.0591">Create Db Checkpoint + Write last transaction ID</text><line style="stroke:#181818;stroke-width:1.0;stroke-dasharray:2.0,2.0;" x1="368" x2="410" y1="234.2578" y2="234.2578"/><line style="stroke:#181818;stroke-width:1.0;stroke-dasharray:2.0,2.0;" x1="410" x2="410" y1="234.2578" y2="247.2578"/><line style="stroke:#181818;stroke-width:1.0;stroke-dasharray:2.0,2.0;" x1="369" x2="410" y1="247.2578" y2="247.2578"/><polygon fill="#181818" points="379,243.2578,369,247.2578,379,251.2578,375,247.2578" style="stroke:#181818;stroke-width:1.0;"/><text fill="#000000" font-family="sans-serif" font-size="13" lengthAdjust="spacing" textLength="145" x="375" y="229.1919">Archive the checkpoint</text><polygon fill="#181818" points="48,272.3906,38,276.3906,48,280.3906,44,276.3906" style="stroke:#181818;stroke-width:1.0;"/><line style="stroke:#181818;stroke-width:1.0;" x1="42" x2="367" y1="276.3906" y2="276.3906"/><text fill="#000000" font-family="sans-serif" font-size="13" lengthAdjust="spacing" textLength="130" x="54" y="271.3247">Send the archive file</text><line style="stroke:#181818;stroke-width:1.0;stroke-dasharray:2.0,2.0;" x1="37" x2="79" y1="305.5234" y2="305.5234"/><line style="stroke:#181818;stroke-width:1.0;stroke-dasharray:2.0,2.0;" x1="79" x2="79" y1="305.5234" y2="318.5234"/><line style="stroke:#181818;stroke-width:1.0;stroke-dasharray:2.0,2.0;" x1="38" x2="79" y1="318.5234" y2="318.5234"/><polygon fill="#181818" points="48,314.5234,38,318.5234,48,322.5234,44,318.5234" style="stroke:#181818;stroke-width:1.0;"/><text fill="#000000" font-family="sans-serif" font-size="13" lengthAdjust="spacing" textLength="207" x="44" y="300.4575">Lock all slots for read-only mode</text><line style="stroke:#181818;stroke-width:1.0;stroke-dasharray:2.0,2.0;" x1="37" x2="79" y1="347.6563" y2="347.6563"/><line style="stroke:#181818;stroke-width:1.0;stroke-dasharray:2.0,2.0;" x1="79" x2="79" y1="347.6563" y2="360.6563"/><line style="stroke:#181818;stroke-width:1.0;stroke-dasharray:2.0,2.0;" x1="38" x2="79" y1="360.6563" y2="360.6563"/><polygon fill="#181818" points="48,356.6563,38,360.6563,48,364.6563,44,360.6563" style="stroke:#181818;stroke-width:1.0;"/><text fill="#000000" font-family="sans-serif" font-size="13" lengthAdjust="spacing" textLength="317" x="44" y="342.5903">Extract the archive and replace the database files</text><line style="stroke:#181818;stroke-width:1.0;stroke-dasharray:2.0,2.0;" x1="37" x2="79" y1="389.7891" y2="389.7891"/><line style="stroke:#181818;stroke-width:1.0;stroke-dasharray:2.0,2.0;" x1="79" x2="79" y1="389.7891" y2="402.7891"/><line style="stroke:#181818;stroke-width:1.0;stroke-dasharray:2.0,2.0;" x1="38" x2="79" y1="402.7891" y2="402.7891"/><polygon fill="#181818" points="48,398.7891,38,402.7891,48,406.7891,44,402.7891" style="stroke:#181818;stroke-width:1.0;"/><text fill="#000000" font-family="sans-serif" font-size="13" lengthAdjust="spacing" textLength="294" x="44" y="384.7231">Read last transaction ID as the next sequence</text><polygon fill="#181818" points="356,427.9219,366,431.9219,356,435.9219,360,431.9219" style="stroke:#181818;stroke-width:1.0;"/><line style="stroke:#181818;stroke-width:1.0;" x1="37" x2="362" y1="431.9219" y2="431.9219"/><text fill="#000000" font-family="sans-serif" font-size="13" lengthAdjust="spacing" textLength="218" x="44" y="426.856">Send changes since transaction N</text><!--SRC=[dP6zJWD138JxFCNqA2-G0Wab824XX9A2sl7vs5Ksth3heDpRunn7VgGB1QqrCz_OjcX9i9HTYamMiyxmj4y9gqvvCemnlSTRYLigtGmhqGOSI3-aeaPbWHNIIdnqutKoA8-cmU-H59Cqi8nMZCEV_fjG2m9HYqNGaD6QgfnXb-fv4JB1Oerv4DxiSbJ37TvBz6cYQbV4vyLuoaFX4B-an_8fPtIzKpqQFAslUrxaKlgIUGFo0zUKhQBD1TwscMPD7RQvkM5xF7XbjYi8ERIuWFYdvEzHUdeTprawQ-m4eDfdg1mCLJxtue_vr_-_0G00]--></g></svg>