<svg version="1.1" xmlns="http://www.w3.org/2000/svg" viewBox="0 0 1318.3786615818356 805.3333740234375" width="1318.3786615818356" height="805.3333740234375">
  <!-- svg-source:excalidraw -->
  
  <defs>
    <style class="style-fonts">
      @font-face {
        font-family: "Virgil";
        src: url("https://excalidraw.com/Virgil.woff2");
      }
      @font-face {
        font-family: "Cascadia";
        src: url("https://excalidraw.com/Cascadia.woff2");
      }
      @font-face {
        font-family: "Assistant";
        src: url("https://excalidraw.com/Assistant-Regular.woff2");
      }
    </style>
    
  </defs>
  <g stroke-opacity="0" fill-opacity="0" stroke-linecap="round" transform="translate(967.9613371741459 145.22559213111356) rotate(0 139.6874436845303 139.68744368453036)"><path d="M152.85 0.23 C167.24 -0.67, 183.3 5.46, 197.02 11.79 C210.73 18.13, 224.09 27.79, 235.15 38.25 C246.22 48.72, 256.38 61.29, 263.41 74.57 C270.43 87.86, 274.85 103.18, 277.29 117.97 C279.74 132.77, 280.79 148.56, 278.08 163.33 C275.37 178.11, 268.48 193.11, 261.05 206.62 C253.62 220.12, 244.56 233.94, 233.51 244.36 C222.46 254.77, 208.71 263.37, 194.72 269.11 C180.74 274.85, 164.67 277.99, 149.6 278.8 C134.53 279.61, 118.94 277.97, 104.32 273.97 C89.69 269.98, 74.32 263.13, 61.85 254.82 C49.39 246.51, 38.74 235.94, 29.52 224.11 C20.3 212.29, 11.5 198.23, 6.52 183.87 C1.54 169.52, -0.78 153.19, -0.36 137.98 C0.06 122.77, 3.93 106.83, 9.02 92.6 C14.11 78.37, 21 64.37, 30.19 52.61 C39.38 40.84, 51.22 30.04, 64.16 21.98 C77.09 13.93, 92.69 7.71, 107.8 4.29 C122.91 0.87, 146.46 1.71, 154.81 1.49 C163.15 1.27, 158.06 0.88, 157.87 2.96 M123.9 1.19 C138.03 -2.98, 154.24 -0.29, 169.03 2.67 C183.81 5.63, 199.43 10.99, 212.62 18.95 C225.81 26.9, 238.34 38.62, 248.16 50.4 C257.99 62.17, 266.26 75.7, 271.55 89.61 C276.83 103.52, 279.61 118.86, 279.87 133.86 C280.14 148.86, 277.66 164.73, 273.14 179.63 C268.62 194.53, 261.63 210.61, 252.75 223.27 C243.87 235.93, 232.06 247.07, 219.86 255.61 C207.65 264.15, 194.04 270.55, 179.52 274.52 C164.99 278.49, 148.25 280.41, 132.72 279.42 C117.18 278.43, 100.44 274.27, 86.28 268.58 C72.12 262.89, 58.76 255.24, 47.76 245.27 C36.76 235.3, 27.66 221.95, 20.29 208.75 C12.93 195.56, 6.8 180.92, 3.56 166.1 C0.32 151.28, -0.94 134.76, 0.84 119.85 C2.62 104.94, 7.2 89.82, 14.24 76.62 C21.27 63.42, 32.2 51.19, 43.05 40.65 C53.9 30.1, 65.74 19.79, 79.35 13.36 C92.96 6.92, 117.03 3.43, 124.71 2.05 C132.4 0.66, 125.47 2.73, 125.45 5.07" stroke="#1e1e1e" stroke-width="1" fill="none"></path></g><g stroke-linecap="round"><g transform="translate(1142.2525458623807 224.3692229513356) rotate(0 51.329125689820444 26.468005105981945)" fill-rule="evenodd"><path d="M7.1 -33.58 C7.1 -33.58, 7.1 -33.58, 7.1 -33.58 M7.1 -33.58 C7.1 -33.58, 7.1 -33.58, 7.1 -33.58 M1.59 -21.14 C6.3 -27.68, 9.57 -32.1, 15.37 -36.99 M1.59 -21.14 C6.71 -25.23, 10.43 -30.92, 15.37 -36.99 M1.99 -15.5 C8.45 -23.64, 18.02 -33.25, 24.29 -41.16 M1.99 -15.5 C9.32 -24.98, 17.76 -33, 24.29 -41.16 M1.73 -9.1 C13.04 -19.04, 23.59 -30.22, 30.59 -42.31 M1.73 -9.1 C8.45 -16.59, 16.09 -24.96, 30.59 -42.31 M1.47 -2.7 C9.99 -15.01, 21.67 -25.2, 36.24 -42.7 M1.47 -2.7 C14.99 -18.19, 27.61 -31.46, 36.24 -42.7 M2.52 2.19 C12.62 -6.53, 22.3 -20.35, 42.54 -43.85 M2.52 2.19 C16.98 -14.49, 32.45 -32.22, 42.54 -43.85 M2.25 8.58 C15.22 -6.6, 30.89 -24.84, 48.18 -44.24 M2.25 8.58 C14.06 -4.82, 25.14 -18.46, 48.18 -44.24 M2.65 14.23 C20.34 -8.56, 40.76 -27.75, 52.51 -43.13 M2.65 14.23 C17.78 -3.44, 30.81 -18.5, 52.51 -43.13 M2.39 20.63 C21.14 -1.82, 43.42 -24.65, 57.5 -42.77 M2.39 20.63 C15.66 5.22, 30.84 -10.52, 57.5 -42.77 M2.78 26.27 C14.2 11.27, 27.9 -3.55, 63.8 -43.92 M2.78 26.27 C25.3 0.26, 47.47 -24.39, 63.8 -43.92 M2.52 32.67 C20.86 11.92, 35.91 -6.83, 68.78 -43.56 M2.52 32.67 C28.07 3.04, 52.62 -24.67, 68.78 -43.56 M2.92 38.31 C26.56 9.63, 52.38 -16.96, 73.11 -42.44 M2.92 38.31 C21.22 15.92, 38.89 -4.08, 73.11 -42.44 M2.65 44.71 C31.55 11.4, 59.92 -20.62, 77.44 -41.33 M2.65 44.71 C33.34 11.01, 62.01 -23.42, 77.44 -41.33 M3.05 50.35 C18.47 31, 34.88 9.97, 80.46 -38.71 M3.05 50.35 C25.84 25.4, 49.15 -2.27, 80.46 -38.71 M2.79 56.75 C30.9 25.39, 61.07 -6.1, 84.79 -37.59 M2.79 56.75 C18.68 37.78, 36.86 16.98, 84.79 -37.59 M3.18 62.39 C22.91 36.45, 45.21 12.45, 88.47 -35.72 M3.18 62.39 C22.19 39.15, 42.06 17.41, 88.47 -35.72 M2.92 68.79 C29.98 37.47, 57.9 6.89, 92.14 -33.85 M2.92 68.79 C27.56 38.37, 53.76 9.02, 92.14 -33.85 M2 75.94 C25.96 49.14, 48.48 24.17, 96.48 -32.74 M2 75.94 C27.51 45.08, 54.89 14.37, 96.48 -32.74 M3.71 80.08 C34.08 46.49, 62.95 12.89, 100.15 -30.87 M3.71 80.08 C28.73 52.93, 52.9 24.3, 100.15 -30.87 M6.73 82.7 C46.5 38.07, 83.8 -5.24, 102.51 -27.49 M6.73 82.7 C37.51 48.88, 69.19 12.65, 102.51 -27.49 M9.75 85.32 C35.07 57.09, 61.17 28.27, 103.56 -22.6 M9.75 85.32 C37.31 56.08, 61.43 25.75, 103.56 -22.6 M12.77 87.95 C42.1 52.12, 75.76 15.25, 103.3 -16.2 M12.77 87.95 C36.32 60.32, 61.56 30.94, 103.3 -16.2 M16.44 89.82 C33.81 66.65, 54.24 44.33, 103.04 -9.8 M16.44 89.82 C39.75 60.91, 64.51 34.86, 103.04 -9.8 M20.12 91.69 C46.17 65.47, 66.36 39.45, 103.44 -4.16 M20.12 91.69 C47.22 60.08, 73.8 30.98, 103.44 -4.16 M23.13 94.31 C48.49 64.77, 73.87 34.89, 103.17 2.24 M23.13 94.31 C51.41 63.28, 78.91 31.13, 103.17 2.24 M27.47 95.43 C41.41 76.45, 60.03 59.3, 102.91 8.63 M27.47 95.43 C48.74 69.87, 69.91 45.42, 102.91 8.63 M31.8 96.54 C56.04 67.26, 80.24 38.47, 102.65 15.03 M31.8 96.54 C52.87 71.27, 73.05 47.23, 102.65 15.03 M36.13 97.66 C57.01 71.34, 78.34 46.13, 103.05 20.68 M36.13 97.66 C53.01 78.5, 70.42 57.81, 103.05 20.68 M39.8 99.53 C55.06 78.52, 75.12 60.17, 102.78 27.07 M39.8 99.53 C62.13 75.78, 81.85 51.07, 102.78 27.07 M44.79 99.89 C57.53 85.98, 70.16 71.28, 102.52 33.47 M44.79 99.89 C66.93 75.82, 86 53.3, 102.52 33.47 M51.09 98.74 C63.98 82.16, 82.12 63.89, 102.26 39.87 M51.09 98.74 C71.69 76.6, 90.98 54.59, 102.26 39.87 M56.73 98.34 C72.25 80.19, 83.79 67.37, 102.66 45.51 M56.73 98.34 C76.4 76.88, 94.49 57.5, 102.66 45.51 M63.03 97.19 C73.47 83.63, 88.41 66.9, 102.39 51.91 M63.03 97.19 C76.62 82.08, 91.24 65.21, 102.39 51.91 M70.64 94.53 C82.21 79.27, 95.66 69.81, 102.79 57.55 M70.64 94.53 C78.34 86.28, 84.07 78.37, 102.79 57.55 M76.29 94.14 C83.41 82.42, 92.89 73.28, 101.87 64.71 M76.29 94.14 C82.74 87.34, 88.88 79.28, 101.87 64.71 M85.86 89.22 C92.84 84.37, 98.56 75.82, 101.61 71.1 M85.86 89.22 C91.15 84.52, 94.54 78.49, 101.61 71.1 M10.02 86.02 C10.02 86.02, 10.02 86.02, 10.02 86.02 M10.02 86.02 C10.02 86.02, 10.02 86.02, 10.02 86.02 M25.48 94.15 C21.23 89.16, 17.09 86.89, 0.57 72.5 M25.48 94.15 C19.78 89.05, 13.85 83, 0.57 72.5 M33.39 95.73 C21.6 88.11, 13.57 76.29, 0.93 67.52 M33.39 95.73 C25.09 88.3, 18.26 82.52, 0.93 67.52 M41.29 97.3 C25.67 83.81, 12.09 70.74, 0.54 61.87 M41.29 97.3 C31.84 90.34, 23.18 81.22, 0.54 61.87 M47.69 97.56 C34.3 87.57, 22.75 73.37, 0.9 56.89 M47.69 97.56 C34.05 85.18, 21.5 74.11, 0.9 56.89 M53.33 97.17 C34.3 77.71, 11.76 61.05, 0.5 51.24 M53.33 97.17 C41.71 86, 29.27 75.61, 0.5 51.24 M58.22 96.12 C39.36 78.24, 21.16 62.26, 0.86 46.26 M58.22 96.12 C46.2 86.25, 35.79 75.82, 0.86 46.26 M63.87 95.72 C40.44 75.92, 16.58 53.2, 0.47 40.61 M63.87 95.72 C45.19 80.03, 25.53 63.3, 0.47 40.61 M68.75 94.67 C51.99 79.54, 38.15 67.81, 0.83 35.63 M68.75 94.67 C45.99 75.65, 23.78 56.71, 0.83 35.63 M72.89 92.97 C44.37 70.73, 18.94 46.85, 0.44 29.98 M72.89 92.97 C53.57 75.55, 34.35 58.16, 0.44 29.98 M77.02 91.26 C46.38 64.7, 17.35 37.1, 0.8 25 M77.02 91.26 C52.26 68.81, 27.42 46.57, 0.8 25 M80.4 88.9 C65.55 75.08, 50.15 59.78, 0.4 19.35 M80.4 88.9 C51.34 65.05, 22.44 39.88, 0.4 19.35 M84.53 87.19 C58.27 65, 35.1 45.84, 0.76 14.37 M84.53 87.19 C56.78 63.56, 27.95 37.98, 0.76 14.37 M87.91 84.83 C69.33 70.69, 54.35 55.09, 0.37 8.72 M87.91 84.83 C53.07 56.26, 19.28 26.52, 0.37 8.72 M92.05 83.12 C72.25 65.1, 53.5 52.09, 0.73 3.74 M92.05 83.12 C73 66.57, 52.31 49.34, 0.73 3.74 M94.67 80.1 C66.33 53.71, 39.35 32.49, 0.33 -1.91 M94.67 80.1 C59.48 50.48, 24.96 19.76, 0.33 -1.91 M98.05 77.74 C68.45 48.85, 38 24.07, 0.69 -6.89 M98.05 77.74 C71.29 53.94, 41.61 29.45, 0.69 -6.89 M99.92 74.06 C65.43 42.22, 33.11 14.46, 1.05 -11.88 M99.92 74.06 C67.72 45.77, 36.89 18.98, 1.05 -11.88 M101.03 69.73 C76.75 48.94, 54.56 26.76, 0.66 -17.52 M101.03 69.73 C79.89 52.7, 59.85 34.71, 0.66 -17.52 M101.39 64.75 C62.57 33.64, 23.6 -2.52, 1.02 -22.51 M101.39 64.75 C75.27 41.34, 49.05 19.02, 1.02 -22.51 M101.75 59.76 C77.25 38.37, 51.05 17.27, 2.13 -26.84 M101.75 59.76 C73.04 34.96, 43.43 9.69, 2.13 -26.84 M102.11 54.77 C66.1 22.98, 29.35 -6.74, 4 -30.52 M102.11 54.77 C64.25 22.6, 27.12 -11.38, 4 -30.52 M101.72 49.13 C76.47 28.41, 53.29 6.12, 6.63 -33.54 M101.72 49.13 C66.68 16.03, 29.54 -15.29, 6.63 -33.54 M102.08 44.14 C80.62 26.8, 62.1 7.57, 10.01 -35.9 M102.08 44.14 C72.87 19.36, 45.77 -6.07, 10.01 -35.9 M102.44 39.15 C81.05 19.98, 55.34 2.37, 13.38 -38.26 M102.44 39.15 C83.56 23.88, 66.01 7.7, 13.38 -38.26 M102.05 33.51 C81.52 16.82, 60.72 -1.87, 17.52 -39.97 M102.05 33.51 C83.54 17.91, 64.03 1.77, 17.52 -39.97 M102.41 28.52 C82.12 10.43, 61.76 -5.94, 22.41 -41.02 M102.41 28.52 C70.97 1.22, 40.03 -25.42, 22.41 -41.02 M102.01 22.88 C85.57 7.13, 67.2 -6.95, 27.29 -42.07 M102.01 22.88 C76.62 0.96, 50.43 -19.96, 27.29 -42.07 M102.37 17.89 C76.44 -5.2, 49.09 -26.29, 32.18 -43.12 M102.37 17.89 C83.17 2.08, 65.59 -14.27, 32.18 -43.12 M102.73 12.91 C88.88 -0.74, 76.52 -12.34, 37.83 -43.51 M102.73 12.91 C86.75 0.47, 71.28 -12.72, 37.83 -43.51 M102.34 7.26 C81.82 -7.43, 65.71 -26.12, 42.71 -44.56 M102.34 7.26 C88.81 -5.21, 74.55 -16.76, 42.71 -44.56 M102.7 2.28 C87.46 -12.99, 69.26 -23.7, 48.36 -44.96 M102.7 2.28 C85.15 -12.46, 67.66 -28.91, 48.36 -44.96 M103.06 -2.71 C88.83 -15.46, 77.45 -26.56, 54.76 -44.7 M103.06 -2.71 C92.38 -10.77, 81.42 -19.87, 54.76 -44.7 M102.66 -8.35 C87.58 -20.11, 71.34 -34.05, 61.15 -44.44 M102.66 -8.35 C86.13 -21.92, 69.9 -35.61, 61.15 -44.44 M103.02 -13.34 C91.42 -23.71, 81.65 -33.64, 68.31 -43.52 M103.02 -13.34 C95.45 -20.85, 88.04 -27.62, 68.31 -43.52 M103.38 -18.33 C93.78 -25.26, 88.55 -30.95, 76.21 -41.95 M103.38 -18.33 C98.11 -23.95, 92.66 -28.24, 76.21 -41.95 M103.74 -23.31 C98.32 -25.77, 94.35 -33.43, 87.14 -37.75 M103.74 -23.31 C96.84 -27.89, 90.17 -33.49, 87.14 -37.75" stroke="#ffc9c9" stroke-width="0.5" fill="none"></path><path d="M-0.31 0.16 C-0.42 11.31, -1.04 54.27, -0.45 67.53 C0.14 80.8, 0.12 75.79, 3.23 79.74 C6.34 83.69, 12.48 88.37, 18.19 91.22 C23.9 94.06, 30.15 95.75, 37.51 96.81 C44.87 97.86, 54.75 99.2, 62.35 97.56 C69.95 95.92, 77.28 90.2, 83.08 86.95 C88.88 83.7, 93.94 81.59, 97.16 78.05 C100.39 74.51, 101.36 74.54, 102.42 65.72 C103.47 56.9, 103.49 38.35, 103.48 25.14 C103.48 11.92, 102.83 -4.68, 102.41 -13.55 C101.99 -22.42, 103.22 -24.33, 100.97 -28.09 C98.72 -31.86, 95.13 -33.3, 88.91 -36.13 C82.7 -38.95, 72.46 -43.65, 63.68 -45.05 C54.89 -46.46, 44.47 -45.91, 36.18 -44.55 C27.88 -43.2, 19.55 -39.59, 13.89 -36.93 C8.23 -34.28, 4.53 -32.07, 2.24 -28.63 C-0.06 -25.19, 0.5 -21.25, 0.13 -16.29 C-0.23 -11.33, 0.01 -1.49, 0.06 1.14 M1.73 -0.8 C1.4 10.48, -2.31 55.36, -1.64 68.97 C-0.97 82.59, 2.38 77, 5.76 80.91 C9.14 84.81, 13.59 89.75, 18.64 92.42 C23.69 95.1, 28.56 96.16, 36.06 96.93 C43.56 97.71, 55.78 98.42, 63.64 97.07 C71.49 95.71, 77.27 91.97, 83.2 88.78 C89.14 85.59, 96.23 81.96, 99.25 77.92 C102.27 73.87, 100.99 73.41, 101.31 64.52 C101.62 55.64, 100.95 37.41, 101.16 24.6 C101.38 11.79, 102.33 -3.46, 102.59 -12.33 C102.86 -21.2, 105.09 -24.63, 102.74 -28.63 C100.4 -32.63, 95.17 -33.51, 88.52 -36.34 C81.87 -39.16, 71.5 -44.1, 62.85 -45.6 C54.21 -47.1, 44.67 -46.49, 36.66 -45.34 C28.65 -44.2, 20.16 -41.63, 14.79 -38.74 C9.42 -35.85, 7.11 -31.76, 4.44 -28 C1.77 -24.24, -0.26 -20.56, -1.22 -16.17 C-2.17 -11.78, -1.69 -4.54, -1.29 -1.66" stroke="#1e1e1e" stroke-width="1" fill="none"></path></g></g><mask></mask><g stroke-linecap="round"><g transform="translate(1143.0381957453885 200.9484604863444) rotate(0 51.19818404265243 10.606273420600644)"><path d="M-0.45 -0.18 C1.32 1.79, 4.1 8.56, 10.3 12.02 C16.51 15.49, 27.93 19.17, 36.78 20.62 C45.64 22.07, 55.07 21.62, 63.43 20.71 C71.8 19.8, 80.64 18.35, 86.97 15.18 C93.3 12.01, 99.01 3.72, 101.41 1.69 M1.51 -1.32 C3.7 0.82, 6.86 9.52, 12.65 13.41 C18.43 17.31, 27.71 20.69, 36.22 22.04 C44.73 23.4, 54.91 23.15, 63.71 21.55 C72.51 19.96, 82.6 15.41, 89.03 12.46 C95.46 9.5, 100.24 5.59, 102.31 3.83" stroke="#1e1e1e" stroke-width="1" fill="none"></path></g></g><mask></mask><g stroke-linecap="round"><g transform="translate(1142.1973708774046 223.11347573370892) rotate(0 51.19818404265243 10.606273420600644)"><path d="M-0.7 -0.28 C1.27 1.83, 5.19 9.14, 11.38 12.5 C17.57 15.87, 27.83 18.3, 36.46 19.93 C45.08 21.55, 54.84 23.37, 63.14 22.25 C71.43 21.13, 79.85 16.42, 86.22 13.22 C92.59 10.01, 98.48 4.71, 101.35 3.01 M1.14 -1.48 C3.02 0.26, 4.87 6.74, 10.63 10.48 C16.4 14.23, 26.95 19.36, 35.72 20.98 C44.49 22.61, 54.56 21.55, 63.26 20.24 C71.95 18.93, 81.4 16.13, 87.89 13.12 C94.39 10.11, 100.03 4.05, 102.22 2.17" stroke="#1e1e1e" stroke-width="1" fill="none"></path></g></g><mask></mask><g stroke-linecap="round"><g transform="translate(1141.4775736894687 239.17202602618215) rotate(0 51.19818404265243 10.606273420600644)"><path d="M0.38 0.2 C2.34 2.21, 5.09 8.26, 11.06 11.81 C17.02 15.35, 27.61 20.05, 36.16 21.47 C44.72 22.88, 54.06 21.44, 62.39 20.29 C70.72 19.13, 79.32 17.41, 86.16 14.53 C93.01 11.64, 100.58 4.99, 103.46 2.98 M-0.88 -0.75 C0.99 1.45, 4.11 9.68, 10.14 13.08 C16.16 16.49, 26.61 18.36, 35.27 19.67 C43.93 20.97, 53.36 21.66, 62.12 20.9 C70.88 20.15, 81.2 18.25, 87.81 15.12 C94.42 11.99, 99.57 4.48, 101.78 2.13" stroke="#1e1e1e" stroke-width="1" fill="none"></path></g></g><mask></mask><g stroke-linecap="round" transform="translate(493.02368984763257 54.95119693464767) rotate(0 51.31990820225553 207.94122153430908)"><path d="M25.66 0 C42.32 -2.15, 52.06 0.18, 76.98 0 C94.72 1.93, 103.46 5.53, 102.64 25.66 C101.94 171.11, 98.9 315.13, 102.64 390.22 C101.66 405.11, 93.99 414.57, 76.98 415.88 C64.11 416.19, 52.18 413.28, 25.66 415.88 C7.84 414.17, -2.01 409.27, 0 390.22 C2.9 315.76, 0.42 244.6, 0 25.66 C2.49 5.88, 10.38 1.77, 25.66 0" stroke="none" stroke-width="0" fill="#ffec99"></path><path d="M25.66 0 C36.41 -0.49, 49.12 -2.04, 76.98 0 M25.66 0 C44.65 0.52, 61.77 1.07, 76.98 0 M76.98 0 C94.42 1.74, 103.38 10.42, 102.64 25.66 M76.98 0 C95.71 -0.73, 102.93 8.09, 102.64 25.66 M102.64 25.66 C103.48 155.67, 103.76 286.21, 102.64 390.22 M102.64 25.66 C102.85 155.77, 102.4 285.26, 102.64 390.22 M102.64 390.22 C103.82 405.59, 93.63 417.21, 76.98 415.88 M102.64 390.22 C104.32 409.04, 96.01 414.81, 76.98 415.88 M76.98 415.88 C66.14 414.79, 53.17 416.77, 25.66 415.88 M76.98 415.88 C65.91 414.87, 54.41 414.47, 25.66 415.88 M25.66 415.88 C8.29 417.25, 0.92 406.6, 0 390.22 M25.66 415.88 C10.56 417.17, 1.02 408.63, 0 390.22 M0 390.22 C-0.36 247.84, -0.36 106.12, 0 25.66 M0 390.22 C-0.55 273.47, -0.22 156.03, 0 25.66 M0 25.66 C-0.01 10.47, 9.86 -0.59, 25.66 0 M0 25.66 C1.7 6.84, 6.58 -2.12, 25.66 0" stroke="#1e1e1e" stroke-width="2" fill="none"></path></g><g stroke-linecap="round" transform="translate(615.3911926030344 52.99998474121094) rotate(0 212.95854411312553 210.1711582757316)"><path d="M32 0 C112.27 -2.01, 190.29 -0.03, 393.92 0 M32 0 C147.43 -1.32, 263.53 -1.54, 393.92 0 M393.92 0 C416 -1.93, 426.46 10.95, 425.92 32 M393.92 0 C413.05 -1.67, 426.47 8.97, 425.92 32 M425.92 32 C424.88 160.59, 424.26 290.55, 425.92 388.34 M425.92 32 C427.48 122.77, 427.5 212.08, 425.92 388.34 M425.92 388.34 C426.25 410.9, 414.08 418.7, 393.92 420.34 M425.92 388.34 C426.71 409.97, 414.1 420.11, 393.92 420.34 M393.92 420.34 C251.32 418.84, 108.34 418.96, 32 420.34 M393.92 420.34 C319.29 418.92, 244.86 419.31, 32 420.34 M32 420.34 C10.3 419.32, -1.32 407.88, 0 388.34 M32 420.34 C9.37 422.44, -2.14 410.88, 0 388.34 M0 388.34 C0.32 315.56, 0.74 243.11, 0 32 M0 388.34 C0.6 274.2, 0.91 159.98, 0 32 M0 32 C-1.84 12.26, 10.15 1.91, 32 0 M0 32 C-0.55 10.1, 10.59 -1.07, 32 0" stroke="#1e1e1e" stroke-width="2" fill="none"></path></g><g stroke-linecap="round" transform="translate(874.3421453236424 66.10086788198407) rotate(0 71.0790980602211 85.29491767226534)"><path d="M7.86 8.16 C7.86 8.16, 7.86 8.16, 7.86 8.16 M7.86 8.16 C7.86 8.16, 7.86 8.16, 7.86 8.16 M1.43 27.75 C11 16.16, 19.59 6.54, 24.4 1.33 M1.43 27.75 C7.47 19.88, 14.95 11.41, 24.4 1.33 M0.91 40.54 C11.98 31.02, 21.29 17.88, 36.34 -0.21 M0.91 40.54 C12.5 28.4, 21.59 16.72, 36.34 -0.21 M1.04 52.58 C15.93 36.74, 29.35 20.05, 46.31 0.51 M1.04 52.58 C14.05 36.72, 27.43 21.17, 46.31 0.51 M1.18 64.62 C13.63 50.9, 25.75 32.67, 56.94 0.47 M1.18 64.62 C17.46 46.68, 33.89 27.08, 56.94 0.47 M0.65 77.42 C19.73 59.28, 36.84 38.24, 67.57 0.44 M0.65 77.42 C15.94 62.21, 29.61 44.95, 67.57 0.44 M0.79 89.46 C24.54 62.27, 48.1 38.57, 78.2 0.41 M0.79 89.46 C23.91 64.02, 45.72 37.16, 78.2 0.41 M0.92 101.5 C33.82 61.52, 67.98 21.76, 88.83 0.37 M0.92 101.5 C23.16 76.6, 44.56 52.21, 88.83 0.37 M1.05 113.54 C38.91 69.71, 78.36 27.83, 99.46 0.34 M1.05 113.54 C34.11 75.72, 68.04 35.46, 99.46 0.34 M0.53 126.34 C45.32 75.85, 88.92 26.46, 110.09 0.3 M0.53 126.34 C32.52 93.18, 61.53 57.04, 110.09 0.3 M0.01 139.13 C44.53 89.04, 89.94 36.54, 120.07 1.02 M0.01 139.13 C25.33 110.39, 48.35 82.41, 120.07 1.02 M1.45 149.67 C25.75 120.24, 52.11 91.81, 128.07 4.01 M1.45 149.67 C27.17 120.27, 54.96 88.58, 128.07 4.01 M4.87 157.93 C53.73 103.32, 101.9 47.5, 134.11 9.25 M4.87 157.93 C52.74 100.81, 102.13 44.3, 134.11 9.25 M10.25 163.94 C54.11 115.6, 95.47 66.29, 139.49 15.26 M10.25 163.94 C39.92 130.35, 68.25 96.32, 139.49 15.26 M16.94 168.43 C44.13 136.9, 73 106.53, 141.59 25.03 M16.94 168.43 C60.13 119.02, 105.85 68.48, 141.59 25.03 M26.26 169.9 C60.02 132.46, 92.34 97.37, 142.38 36.32 M26.26 169.9 C66.18 126, 107.12 80.45, 142.38 36.32 M36.23 170.62 C64.89 139.53, 91.26 109.5, 141.86 49.12 M36.23 170.62 C73.12 127.39, 111.07 83.48, 141.86 49.12 M46.86 170.59 C80.61 133.54, 113.63 95.61, 141.99 61.16 M46.86 170.59 C68.62 143.78, 91.28 118.09, 141.99 61.16 M57.49 170.56 C83.36 139.95, 113.06 110.74, 142.13 73.2 M57.49 170.56 C88.25 135.37, 117.44 101.65, 142.13 73.2 M68.12 170.52 C85.98 149.2, 102.81 129.6, 142.26 85.24 M68.12 170.52 C84.7 150.07, 102.24 129.79, 142.26 85.24 M78.75 170.49 C97.42 145.98, 118.85 123.81, 142.39 97.28 M78.75 170.49 C96.75 150.02, 114.91 130.09, 142.39 97.28 M89.38 170.45 C102.8 156.72, 115.93 138.77, 141.87 110.08 M89.38 170.45 C106.39 149.6, 124.87 130.85, 141.87 110.08 M100.01 170.42 C112.17 158.26, 120.05 145.78, 142 122.12 M100.01 170.42 C108.46 159.55, 118.5 148.97, 142 122.12 M110.65 170.38 C120.4 158.35, 128.06 148.73, 142.14 134.16 M110.65 170.38 C121.48 156.64, 134.17 144.16, 142.14 134.16 M122.59 168.84 C128.26 161.33, 133.63 155.71, 140.96 147.71 M122.59 168.84 C126.82 164.81, 131.5 159.57, 140.96 147.71" stroke="#b2f2bb" stroke-width="1" fill="none"></path><path d="M32 0 C46.38 1.95, 63.37 2.11, 110.16 0 M32 0 C52.89 0.02, 71.98 0.23, 110.16 0 M110.16 0 C130.67 -1.35, 140.29 9, 142.16 32 M110.16 0 C131.7 -0.2, 140.56 10.47, 142.16 32 M142.16 32 C141.98 56.23, 142.71 80.82, 142.16 138.59 M142.16 32 C140.56 69.1, 140.85 104.49, 142.16 138.59 M142.16 138.59 C143.76 161.88, 130.13 170.47, 110.16 170.59 M142.16 138.59 C141.15 159.15, 130.13 170.29, 110.16 170.59 M110.16 170.59 C92.54 169.11, 79.11 170.83, 32 170.59 M110.16 170.59 C82.15 170.83, 54.29 170.13, 32 170.59 M32 170.59 C12.52 170.25, 0.4 160.59, 0 138.59 M32 170.59 C11.13 170.98, -1.16 159.85, 0 138.59 M0 138.59 C0.44 113.37, -0.25 89.66, 0 32 M0 138.59 C-0.09 104.52, 0.18 68.5, 0 32 M0 32 C-0.71 12.57, 9.82 -1.85, 32 0 M0 32 C-0.26 12.94, 8.95 -0.45, 32 0" stroke="#1e1e1e" stroke-width="2" fill="none"></path></g><g stroke-linecap="round" transform="translate(876.8507172946183 268.46721566329677) rotate(0 71.0790980602211 85.29491767226534)"><path d="M7.86 8.16 C7.86 8.16, 7.86 8.16, 7.86 8.16 M7.86 8.16 C7.86 8.16, 7.86 8.16, 7.86 8.16 M1.43 27.75 C6.35 20.37, 12.64 10.95, 24.4 1.33 M1.43 27.75 C9.22 19.31, 14.9 11.7, 24.4 1.33 M0.91 40.54 C12.09 30.97, 21.55 17.82, 36.34 -0.21 M0.91 40.54 C13.16 27.42, 24.39 14.05, 36.34 -0.21 M1.04 52.58 C14.36 34.57, 30.51 18.27, 46.31 0.51 M1.04 52.58 C12.58 39.39, 24.77 25.22, 46.31 0.51 M1.18 64.62 C18.42 46.1, 31.63 25.22, 56.94 0.47 M1.18 64.62 C19.84 40.94, 40.12 19.98, 56.94 0.47 M0.65 77.42 C22.11 51.01, 40.62 27.11, 67.57 0.44 M0.65 77.42 C24.2 48.58, 48.35 21.11, 67.57 0.44 M0.79 89.46 C25.51 62.71, 48.51 35.18, 78.2 0.41 M0.79 89.46 C24.43 62.98, 48.59 35.99, 78.2 0.41 M0.92 101.5 C31.01 64.66, 64.79 26.4, 88.83 0.37 M0.92 101.5 C19.66 80.18, 37.18 58.85, 88.83 0.37 M1.05 113.54 C26.52 83.54, 51.66 56.43, 99.46 0.34 M1.05 113.54 C21.87 89.24, 43.48 63.86, 99.46 0.34 M0.53 126.34 C23.53 100.49, 47.55 70.25, 110.09 0.3 M0.53 126.34 C29.57 95.42, 58.31 62.43, 110.09 0.3 M0.01 139.13 C24.38 110.51, 49.16 80.71, 120.07 1.02 M0.01 139.13 C27.7 105.22, 57.44 71.86, 120.07 1.02 M1.45 149.67 C53.42 91.2, 101.48 31.87, 128.07 4.01 M1.45 149.67 C26.44 120.24, 53.11 91.26, 128.07 4.01 M4.87 157.93 C46.72 110.09, 89.47 58.59, 134.11 9.25 M4.87 157.93 C40.74 117.61, 75.69 76.02, 134.11 9.25 M10.25 163.94 C42.18 128.01, 68.76 93.69, 139.49 15.26 M10.25 163.94 C36.43 132.59, 64.36 102.55, 139.49 15.26 M16.94 168.43 C44.92 136.1, 77 101.11, 141.59 25.03 M16.94 168.43 C63 114.2, 111.78 57.93, 141.59 25.03 M26.26 169.9 C50.89 139.94, 80.56 108.25, 142.38 36.32 M26.26 169.9 C58.74 130.96, 92.27 91.85, 142.38 36.32 M36.23 170.62 C66.63 133.71, 98.01 99.86, 141.86 49.12 M36.23 170.62 C75.47 125.88, 115.58 79.67, 141.86 49.12 M46.86 170.59 C76.86 135.39, 109.42 97.99, 141.99 61.16 M46.86 170.59 C75.5 136.37, 103.85 103.98, 141.99 61.16 M57.49 170.56 C85.93 136.98, 114.42 107.24, 142.13 73.2 M57.49 170.56 C74.55 148.54, 94.05 127.75, 142.13 73.2 M68.12 170.52 C86.05 151.04, 101.05 135.06, 142.26 85.24 M68.12 170.52 C95.87 140.1, 124.47 108.1, 142.26 85.24 M78.75 170.49 C95.12 151.38, 115.78 127.35, 142.39 97.28 M78.75 170.49 C92.45 153.28, 108.22 136.13, 142.39 97.28 M89.38 170.45 C102.32 158.41, 114.81 142.69, 141.87 110.08 M89.38 170.45 C104.53 154.46, 117.92 138.01, 141.87 110.08 M100.01 170.42 C108.5 161.43, 116.38 151.28, 142 122.12 M100.01 170.42 C112.22 157.82, 124.13 142.24, 142 122.12 M110.65 170.38 C117.01 159.2, 128.86 152.72, 142.14 134.16 M110.65 170.38 C116.52 162.49, 123.73 153.75, 142.14 134.16 M122.59 168.84 C125.99 165.69, 129.18 159.26, 140.96 147.71 M122.59 168.84 C127.03 163.95, 130.73 159.34, 140.96 147.71" stroke="#b2f2bb" stroke-width="1" fill="none"></path><path d="M32 0 C52.78 -0.25, 71.62 -0.95, 110.16 0 M32 0 C48.56 0.6, 64.02 1.3, 110.16 0 M110.16 0 C129.79 -0.85, 140.22 10.95, 142.16 32 M110.16 0 C132.76 2.04, 143.28 11.31, 142.16 32 M142.16 32 C142.19 55.21, 141.33 75.59, 142.16 138.59 M142.16 32 C142.01 62.45, 142.57 94.39, 142.16 138.59 M142.16 138.59 C142.05 160.94, 129.67 172.12, 110.16 170.59 M142.16 138.59 C142.37 159.38, 130.28 172.52, 110.16 170.59 M110.16 170.59 C89.28 169.23, 68.37 169.05, 32 170.59 M110.16 170.59 C82.46 171.89, 55.36 172.25, 32 170.59 M32 170.59 C8.92 168.79, -1.48 159.33, 0 138.59 M32 170.59 C10.21 172.48, 1.05 160.39, 0 138.59 M0 138.59 C-0.84 115.41, 2.7 94.07, 0 32 M0 138.59 C0.1 112.38, -0.57 85.91, 0 32 M0 32 C-1.92 11.67, 11.83 -1.47, 32 0 M0 32 C-1.78 12.29, 9.06 1.26, 32 0" stroke="#1e1e1e" stroke-width="2" fill="none"></path></g><g stroke-linecap="round"><g transform="translate(877.1295949599166 339.2675891755322) rotate(0 -145.7818704397779 -79.16260758307357)"><path d="M-0.83 0.68 C-21.33 -18.94, -74.35 -92.16, -122.94 -118.48 C-171.53 -144.8, -264.45 -150.55, -292.37 -157.23 M0.94 -0.01 C-19.75 -19.38, -75.58 -90.59, -124.05 -117.09 C-172.52 -143.59, -261.69 -152.24, -289.9 -159" stroke="#1e1e1e" stroke-width="1" fill="none"></path></g><g transform="translate(877.1295949599166 339.2675891755322) rotate(0 -145.7818704397779 -79.16260758307357)"><path d="M-265.26 -163.26 C-271.67 -162.63, -280.81 -162.17, -289.9 -159 M-265.26 -163.26 C-274.43 -160.83, -283.71 -159.81, -289.9 -159" stroke="#1e1e1e" stroke-width="1" fill="none"></path></g><g transform="translate(877.1295949599166 339.2675891755322) rotate(0 -145.7818704397779 -79.16260758307357)"><path d="M-268.29 -146.43 C-273.67 -150.91, -281.88 -155.59, -289.9 -159 M-268.29 -146.43 C-276.43 -150.57, -284.52 -156.14, -289.9 -159" stroke="#1e1e1e" stroke-width="1" fill="none"></path></g></g><mask></mask><g stroke-linecap="round"><g transform="translate(939.0102215064619 237.805677977114) rotate(0 0 15.052044295105645)"><path d="M0.11 0.01 C0.18 5.06, 0.29 25.34, 0.27 30.29 M-0.49 -0.46 C-0.46 4.42, -0.04 24.33, -0.03 29.42" stroke="#1e1e1e" stroke-width="1" fill="none"></path></g><g transform="translate(939.0102215064619 237.805677977114) rotate(0 0 15.052044295105645)"><path d="M-5.36 15.35 C-3.89 19.55, -2.19 22.96, -0.03 29.42 M-5.36 15.35 C-3.9 18.92, -3.03 21.62, -0.03 29.42" stroke="#1e1e1e" stroke-width="1" fill="none"></path></g><g transform="translate(939.0102215064619 237.805677977114) rotate(0 0 15.052044295105645)"><path d="M4.94 15.21 C3.6 19.47, 2.48 22.91, -0.03 29.42 M4.94 15.21 C4.03 18.81, 2.53 21.55, -0.03 29.42" stroke="#1e1e1e" stroke-width="1" fill="none"></path></g></g><mask></mask><g stroke-linecap="round"><g transform="translate(1019.2877910803588 301.91625402485795) rotate(0 61.60185095945553 -39.58131017142483)"><path d="M-0.14 0.54 C20.33 -12.31, 102.29 -64.75, 123.01 -78.23 M-1.67 -0.23 C18.61 -13.29, 101.03 -66.62, 121.95 -79.86" stroke="#1e1e1e" stroke-width="1" fill="none"></path></g><g transform="translate(1019.2877910803588 301.91625402485795) rotate(0 61.60185095945553 -39.58131017142483)"><path d="M106.79 -59.99 C112.65 -66.56, 118.09 -70.95, 121.95 -79.86 M106.79 -59.99 C110.28 -62.93, 113.63 -68.66, 121.95 -79.86" stroke="#1e1e1e" stroke-width="1" fill="none"></path></g><g transform="translate(1019.2877910803588 301.91625402485795) rotate(0 61.60185095945553 -39.58131017142483)"><path d="M97.56 -74.39 C106.19 -76.41, 114.54 -76.26, 121.95 -79.86 M97.56 -74.39 C102.93 -74.35, 108.13 -77.2, 121.95 -79.86" stroke="#1e1e1e" stroke-width="1" fill="none"></path></g></g><mask></mask><g stroke-linecap="round"><g transform="translate(1139.704145441204 269.5822159334482) rotate(0 -60.20817718042258 35.12143668857982)"><path d="M0.21 -0.43 C-19.67 11.31, -99.32 59.08, -119.55 70.97 M-1.14 -1.7 C-21.07 9.64, -100.45 57.46, -120.04 69.23" stroke="#1e1e1e" stroke-width="1" fill="none"></path></g><g transform="translate(1139.704145441204 269.5822159334482) rotate(0 -60.20817718042258 35.12143668857982)"><path d="M-104.32 49.8 C-109.28 56.64, -111.7 59.28, -120.04 69.23 M-104.32 49.8 C-109.52 56.3, -116.29 64.11, -120.04 69.23" stroke="#1e1e1e" stroke-width="1" fill="none"></path></g><g transform="translate(1139.704145441204 269.5822159334482) rotate(0 -60.20817718042258 35.12143668857982)"><path d="M-95.51 64.46 C-102.98 67.26, -107.83 65.85, -120.04 69.23 M-95.51 64.46 C-103.9 65.65, -113.83 68.2, -120.04 69.23" stroke="#1e1e1e" stroke-width="1" fill="none"></path></g></g><mask></mask><g stroke-opacity="0" fill-opacity="0" stroke-linecap="round" transform="translate(10 147.62133841816444) rotate(0 93.71200508769502 93.71200508769505)"><path d="M100.45 1.16 C112.11 0.49, 125.61 4.55, 136.15 9.8 C146.68 15.06, 155.83 23.55, 163.64 32.68 C171.46 41.81, 178.98 53.24, 183.03 64.59 C187.07 75.93, 188.77 88.76, 187.91 100.74 C187.05 112.72, 183.41 125.77, 177.88 136.47 C172.35 147.17, 163.66 157.2, 154.71 164.96 C145.75 172.72, 135.35 179.4, 124.15 183.03 C112.95 186.66, 99.71 187.79, 87.52 186.74 C75.33 185.7, 61.78 181.99, 51.01 176.76 C40.24 171.53, 30.6 164.29, 22.89 155.36 C15.19 146.43, 8.42 134.48, 4.78 123.19 C1.13 111.91, 0.09 99.67, 1.02 87.67 C1.94 75.66, 5.21 61.92, 10.33 51.16 C15.46 40.4, 22.66 30.95, 31.78 23.12 C40.9 15.28, 50.95 7.56, 65.03 4.17 C79.11 0.78, 105.35 1.95, 116.25 2.78 C127.15 3.62, 130.76 7.83, 130.42 9.18 M104.36 1.61 C115.91 1.48, 129.86 6.32, 140.53 12.08 C151.2 17.85, 160.87 26.76, 168.37 36.2 C175.87 45.64, 182.54 57.27, 185.53 68.72 C188.52 80.16, 188 92.79, 186.3 104.87 C184.6 116.94, 181.2 130.74, 175.34 141.15 C169.49 151.56, 160.52 159.98, 151.2 167.33 C141.87 174.68, 131.04 182.2, 119.39 185.27 C107.74 188.34, 93.39 187.31, 81.3 185.74 C69.21 184.16, 57.05 181.42, 46.82 175.82 C36.58 170.21, 27.34 161.65, 19.89 152.09 C12.44 142.54, 5.51 130.04, 2.12 118.48 C-1.27 106.93, -2.05 94.69, -0.46 82.76 C1.14 70.82, 5.62 57.63, 11.66 46.88 C17.7 36.13, 26.27 25.57, 35.76 18.27 C45.25 10.97, 57 6.19, 68.61 3.08 C80.21 -0.02, 99.5 -0.43, 105.41 -0.35 C111.31 -0.27, 104.2 2.02, 104.03 3.54" stroke="#1e1e1e" stroke-width="1" fill="none"></path></g><g stroke-linecap="round" transform="translate(241.6564531835278 85.65316584245898) rotate(0 39.022659932462545 26.015106621641735)"><path d="M13.01 0 C30.61 0.15, 51.74 1.77, 65.04 0 M13.01 0 C31.59 0.86, 49.95 1.18, 65.04 0 M65.04 0 C74.44 0.72, 79.7 3.56, 78.05 13.01 M65.04 0 C74.71 1.9, 78.98 5.44, 78.05 13.01 M78.05 13.01 C77.83 20.19, 77.8 26.05, 78.05 39.02 M78.05 13.01 C77.58 22.29, 78.42 33.61, 78.05 39.02 M78.05 39.02 C76.78 48.84, 74.05 53.59, 65.04 52.03 M78.05 39.02 C78.02 49.27, 71.76 52.6, 65.04 52.03 M65.04 52.03 C51.1 52.33, 34.58 52.58, 13.01 52.03 M65.04 52.03 C49.15 51.65, 33.91 52.71, 13.01 52.03 M13.01 52.03 C4.29 51.54, 1.13 49.29, 0 39.02 M13.01 52.03 C3.15 50.56, -0.85 48.69, 0 39.02 M0 39.02 C-0.23 29.37, 0.76 22.06, 0 13.01 M0 39.02 C-0.11 31.89, 0.11 24.4, 0 13.01 M0 13.01 C-1.45 5.61, 4.65 -1.64, 13.01 0 M0 13.01 C-0.08 5.07, 3.36 -0.8, 13.01 0" stroke="#1e1e1e" stroke-width="1" fill="none"></path></g><g stroke-linecap="round" transform="translate(234.2127367783845 143.47462076958175) rotate(0 45.85238343657062 6.276371877249119)"><path d="M3.14 0 C30.06 0.87, 57.33 -0.15, 88.57 0 M3.14 0 C21.49 0.19, 39.54 0.01, 88.57 0 M88.57 0 C91.49 -0.39, 92.14 1.87, 91.7 3.14 M88.57 0 C91.13 0.55, 91.2 0.16, 91.7 3.14 M91.7 3.14 C91.7 4.5, 91.95 6.14, 91.7 9.41 M91.7 3.14 C91.72 5.44, 91.59 7.53, 91.7 9.41 M91.7 9.41 C91.88 12.28, 90.65 13.24, 88.57 12.55 M91.7 9.41 C90.73 11.79, 90.55 12.89, 88.57 12.55 M88.57 12.55 C68.48 13.14, 48.64 13.66, 3.14 12.55 M88.57 12.55 C63.93 12.78, 39.17 12.29, 3.14 12.55 M3.14 12.55 C1.61 13.35, -0.51 10.87, 0 9.41 M3.14 12.55 C0.62 13.05, 0.12 12.17, 0 9.41 M0 9.41 C0.14 7.92, -0.1 6.59, 0 3.14 M0 9.41 C0.01 8.03, -0.11 6.97, 0 3.14 M0 3.14 C0.16 0.23, 1.01 0.32, 3.14 0 M0 3.14 C-0.49 0.65, 1.51 -1.12, 3.14 0" stroke="#1e1e1e" stroke-width="1" fill="none"></path></g><g stroke-linecap="round" transform="translate(301.8237004983296 148.07140017263782) rotate(0 8.216252074051624 1.583826236629875)"><path d="M0.79 0 C5.79 -0.14, 9.39 0.19, 15.64 0 M0.79 0 C5.99 0.08, 11.22 -0.2, 15.64 0 M15.64 0 C16.6 0.82, 16.84 0.74, 16.43 0.79 M15.64 0 C15.66 -0.89, 15.56 0.25, 16.43 0.79 M16.43 0.79 C16.49 1.36, 16.47 1.78, 16.43 2.38 M16.43 0.79 C16.41 1.2, 16.44 1.6, 16.43 2.38 M16.43 2.38 C16.42 3.59, 15.32 3.42, 15.64 3.17 M16.43 2.38 C16.32 3.24, 15.41 3.84, 15.64 3.17 M15.64 3.17 C10.71 3.92, 5.7 3, 0.79 3.17 M15.64 3.17 C11.66 3.13, 7.9 3.52, 0.79 3.17 M0.79 3.17 C-0.25 2.53, -0.37 3.34, 0 2.38 M0.79 3.17 C0.39 3.83, -0.94 2.86, 0 2.38 M0 2.38 C-0.03 2, -0.08 1.66, 0 0.79 M0 2.38 C-0.03 1.95, 0.01 1.45, 0 0.79 M0 0.79 C-0.03 0.58, -0.16 -0.35, 0.79 0 M0 0.79 C0.46 -0.86, -0.52 0.69, 0.79 0" stroke="#1e1e1e" stroke-width="1" fill="none"></path></g><g stroke-linecap="round" transform="translate(272.7107642789764 138.4947764162705) rotate(0 8.216252074051624 1.583826236629875)"><path d="M0.79 0 C5.96 0.27, 12.74 0.37, 15.64 0 M0.79 0 C6.63 -0.17, 12.01 0.28, 15.64 0 M15.64 0 C16.58 0.48, 15.99 -0.51, 16.43 0.79 M15.64 0 C15.29 -0.01, 16.74 0.24, 16.43 0.79 M16.43 0.79 C16.47 1.2, 16.4 1.72, 16.43 2.38 M16.43 0.79 C16.43 1.45, 16.43 2.06, 16.43 2.38 M16.43 2.38 C15.58 3.15, 16.07 3.46, 15.64 3.17 M16.43 2.38 C15.67 3.58, 16.54 3.03, 15.64 3.17 M15.64 3.17 C10.44 3.04, 5.16 3.33, 0.79 3.17 M15.64 3.17 C10.3 3.45, 4.36 2.91, 0.79 3.17 M0.79 3.17 C-0.11 3.6, 0.11 3.48, 0 2.38 M0.79 3.17 C-0.68 3.12, -0.91 3.43, 0 2.38 M0 2.38 C-0.07 1.95, -0.01 1.55, 0 0.79 M0 2.38 C0.01 1.98, 0 1.67, 0 0.79 M0 0.79 C-0.42 -0.08, 0.66 -0.97, 0.79 0 M0 0.79 C-0.78 0.95, -0.17 1.03, 0.79 0" stroke="#1e1e1e" stroke-width="1" fill="none"></path></g><g stroke-linecap="round" transform="translate(248.3590057223048 91.67254330936566) rotate(0 32.36992342891028 20.303451888379414)"><path d="M10.15 0 C23.85 0.82, 37.37 0.58, 54.59 0 M10.15 0 C25.52 1, 40.42 0.65, 54.59 0 M54.59 0 C60.47 -1.54, 63.22 3.36, 64.74 10.15 M54.59 0 C61.97 -0.05, 64.44 5.18, 64.74 10.15 M64.74 10.15 C63.73 17.93, 66.69 23.59, 64.74 30.46 M64.74 10.15 C64.76 18.09, 63.93 24.91, 64.74 30.46 M64.74 30.46 C64.55 37.81, 60.03 41.78, 54.59 40.61 M64.74 30.46 C65.48 36.95, 62.39 40.61, 54.59 40.61 M54.59 40.61 C36.3 40.73, 20.77 40.44, 10.15 40.61 M54.59 40.61 C41.83 40.32, 29.73 41.4, 10.15 40.61 M10.15 40.61 C3.6 41.76, -1.64 37.15, 0 30.46 M10.15 40.61 C1.57 41.66, -0.92 36.47, 0 30.46 M0 30.46 C-0.16 25.02, -1.24 18, 0 10.15 M0 30.46 C-0.07 23.39, -0.46 15.33, 0 10.15 M0 10.15 C0.8 1.44, 2.02 1.19, 10.15 0 M0 10.15 C-0.86 5.44, 3.28 2.03, 10.15 0" stroke="#1e1e1e" stroke-width="1" fill="none"></path></g><g transform="translate(237.0704423530126 165.74034282419768) rotate(0 47.18463104227453 16.10813738379187)"><text x="47.184631042274546" y="25.924033602040048" font-family="Cascadia, Segoe UI Emoji" font-size="26.846895639653127px" fill="#1e1e1e" text-anchor="middle" style="white-space: pre;" direction="ltr" dominant-baseline="alphabetic">Client</text></g><g stroke-linecap="round"><g transform="translate(326.4373669298923 123.30887241751327) rotate(0 82.17816118871883 -2.065379270515791)"><path d="M-1.09 0.63 C26.41 0.18, 137.55 -2.42, 165.17 -3.03 M0.54 -0.08 C27.93 -0.81, 137.4 -3.79, 164.65 -4.57" stroke="#1e1e1e" stroke-width="1" fill="none"></path></g><g transform="translate(326.4373669298923 123.30887241751327) rotate(0 82.17816118871883 -2.065379270515791)"><path d="M141.41 4.63 C149.86 3.28, 158.03 -0.5, 164.65 -4.57 M141.41 4.63 C150.57 0.17, 160.12 -3.1, 164.65 -4.57" stroke="#1e1e1e" stroke-width="1" fill="none"></path></g><g transform="translate(326.4373669298923 123.30887241751327) rotate(0 82.17816118871883 -2.065379270515791)"><path d="M140.93 -12.47 C149.49 -8.38, 157.81 -6.74, 164.65 -4.57 M140.93 -12.47 C150.31 -10.19, 160.05 -6.7, 164.65 -4.57" stroke="#1e1e1e" stroke-width="1" fill="none"></path></g></g><mask></mask><g stroke-linecap="round"><g transform="translate(489.1212909803112 169.20119592542585) rotate(0 -76.86899829348607 -6.864653552318316)"><path d="M-0.93 -0.71 C-26.65 -3.24, -128.92 -12.78, -154.39 -14.76 M0.78 1.54 C-24.54 -0.92, -126.14 -11.12, -152.02 -13.76" stroke="#1e1e1e" stroke-width="1" fill="none"></path></g><g transform="translate(489.1212909803112 169.20119592542585) rotate(0 -76.86899829348607 -6.864653552318316)"><path d="M-127.79 -19.91 C-136.1 -19.37, -143.79 -16.48, -152.02 -13.76 M-127.79 -19.91 C-136.36 -18, -146.99 -14.46, -152.02 -13.76" stroke="#1e1e1e" stroke-width="1" fill="none"></path></g><g transform="translate(489.1212909803112 169.20119592542585) rotate(0 -76.86899829348607 -6.864653552318316)"><path d="M-129.51 -2.89 C-137.38 -7.37, -144.56 -9.5, -152.02 -13.76 M-129.51 -2.89 C-137.48 -7.72, -147.44 -10.91, -152.02 -13.76" stroke="#1e1e1e" stroke-width="1" fill="none"></path></g></g><mask></mask><g transform="translate(1150.2962907339127 335.36524134731496) rotate(0 50.957441624055605 8.02775695738967)"><text x="0" y="12.919671353299014" font-family="Cascadia, Segoe UI Emoji" font-size="13.3795949289828px" fill="#1e1e1e" text-anchor="start" style="white-space: pre;" direction="ltr" dominant-baseline="alphabetic">RockDb / Sled</text></g><g transform="translate(906.1186832799765 214.39136133184206) rotate(0 43.117835220354664 8.02775695738967)"><text x="0" y="12.919671353299014" font-family="Cascadia, Segoe UI Emoji" font-size="13.379594928982797px" fill="#1e1e1e" text-anchor="start" style="white-space: pre;" direction="ltr" dominant-baseline="alphabetic">Reader task</text></g><g transform="translate(908.1568788667303 413.74730025413373) rotate(0 43.117835220354664 8.02775695738967)"><text x="0" y="12.919671353299014" font-family="Cascadia, Segoe UI Emoji" font-size="13.379594928982797px" fill="#1e1e1e" text-anchor="start" style="white-space: pre;" direction="ltr" dominant-baseline="alphabetic">Writer task</text></g><g stroke-linecap="round" transform="translate(688.7003167231103 79.48046281096686) rotate(0 51.56720580182264 38.74507272858733)"><path d="M5.16 4.48 C5.16 4.48, 5.16 4.48, 5.16 4.48 M5.16 4.48 C5.16 4.48, 5.16 4.48, 5.16 4.48 M0.96 15.41 C6.08 12.33, 8.6 8.36, 12.77 1.82 M0.96 15.41 C4.85 11.59, 8.66 6.12, 12.77 1.82 M0.7 21.81 C7.45 14.02, 13.78 4.53, 19.72 -0.08 M0.7 21.81 C5.87 16.09, 11.96 8.18, 19.72 -0.08 M1.09 27.45 C6.93 20.17, 15.47 10.26, 24.71 0.28 M1.09 27.45 C8.64 18.65, 18.39 7.94, 24.71 0.28 M0.83 33.85 C12.01 21.28, 20.31 9.59, 30.35 -0.11 M0.83 33.85 C11.96 19.94, 24.09 8.13, 30.35 -0.11 M1.23 39.49 C9.15 28.21, 19.61 17.8, 35.34 0.25 M1.23 39.49 C9.82 29.13, 18.7 19.69, 35.34 0.25 M0.96 45.89 C9.84 36.75, 16.85 27.9, 40.98 -0.15 M0.96 45.89 C11.48 35.44, 20.05 23.47, 40.98 -0.15 M0.7 52.29 C8.7 41.4, 17.63 31.1, 45.97 0.21 M0.7 52.29 C12.63 37.56, 25.44 23.35, 45.97 0.21 M1.1 57.93 C11.27 46.44, 22.95 30.13, 51.61 -0.18 M1.1 57.93 C21.3 34.79, 39.58 13.09, 51.61 -0.18 M0.84 64.33 C16.68 47.33, 31.67 28.85, 56.6 0.18 M0.84 64.33 C22.66 39.39, 44.34 16.09, 56.6 0.18 M3.2 67.71 C20.23 49.35, 36.91 28.8, 62.24 -0.22 M3.2 67.71 C22.26 44.6, 41.48 22.88, 62.24 -0.22 M4.9 71.84 C27.19 45.16, 52.84 17.07, 67.23 0.14 M4.9 71.84 C26.8 46.46, 47.71 20.8, 67.23 0.14 M7.92 74.46 C27.97 52.25, 45.69 31.52, 72.22 0.5 M7.92 74.46 C26.94 52.11, 47.3 30.16, 72.22 0.5 M11.6 76.33 C33.32 49.04, 59.77 21.74, 77.86 0.11 M11.6 76.33 C29.3 57.64, 45.3 38.5, 77.86 0.11 M15.93 77.45 C37.35 53.22, 57.53 29.77, 82.85 0.47 M15.93 77.45 C38.04 52.52, 59.63 27.89, 82.85 0.47 M20.92 77.81 C40.57 54.61, 59.24 31.85, 87.83 0.83 M20.92 77.81 C44.27 51.63, 68.36 24.47, 87.83 0.83 M26.56 77.41 C41.48 61.69, 56.16 47.09, 92.82 1.19 M26.56 77.41 C48.61 52.63, 69.9 29.7, 92.82 1.19 M31.55 77.77 C44.32 62.64, 61.05 45.17, 95.84 3.81 M31.55 77.77 C47.86 60.21, 62.39 43.31, 95.84 3.81 M37.19 77.38 C54.86 58.19, 75.15 37.68, 99.52 5.68 M37.19 77.38 C52.54 62, 65.26 44.54, 99.52 5.68 M42.18 77.74 C55.49 63.1, 66.86 51.37, 101.22 9.82 M42.18 77.74 C59.71 57.91, 77.05 38.23, 101.22 9.82 M47.16 78.1 C61.89 63.93, 72.95 51.3, 102.93 13.95 M47.16 78.1 C61.96 60.83, 76.23 44.46, 102.93 13.95 M52.81 77.7 C67.66 60.43, 78.56 46.25, 103.32 19.59 M52.81 77.7 C63.55 66.44, 73.65 54.27, 103.32 19.59 M57.79 78.06 C70.88 65.8, 82.43 51.41, 103.06 25.99 M57.79 78.06 C70.76 63.49, 84.93 47.29, 103.06 25.99 M63.44 77.67 C76.01 64.39, 88.97 50.39, 103.46 31.63 M63.44 77.67 C72.68 66.69, 82.75 55.12, 103.46 31.63 M68.42 78.03 C77.52 67.44, 86.84 54.66, 103.2 38.03 M68.42 78.03 C75.42 68.5, 83.01 60.88, 103.2 38.03 M74.07 77.64 C80.66 70.41, 89.01 59.77, 102.93 44.43 M74.07 77.64 C81.28 69.5, 86.89 62.81, 102.93 44.43 M79.05 78 C90.13 66.58, 97.24 55.23, 103.33 50.07 M79.05 78 C83.38 72.53, 88.92 66.08, 103.33 50.07 M84.04 78.36 C88.17 72.46, 96.57 63.92, 103.07 56.47 M84.04 78.36 C89.56 71.64, 96.16 63.7, 103.07 56.47 M90.34 77.21 C93.97 70.7, 97.72 65.9, 102.81 62.87 M90.34 77.21 C95.04 71.83, 97.65 69.12, 102.81 62.87" stroke="#b2f2bb" stroke-width="0.5" fill="none"></path><path d="M19.37 0 C39.05 -2.29, 56.17 -1.53, 83.76 0 M19.37 0 C33.36 -0.34, 48.85 -0.87, 83.76 0 M83.76 0 C96.13 0.17, 103.65 5.33, 103.13 19.37 M83.76 0 C97.04 -2.09, 103.75 6.85, 103.13 19.37 M103.13 19.37 C101.64 36.62, 103.51 48.26, 103.13 58.12 M103.13 19.37 C102.96 31.36, 103.16 45.75, 103.13 58.12 M103.13 58.12 C101.89 71.92, 96.33 76.96, 83.76 77.49 M103.13 58.12 C103.06 72.65, 94.55 76.65, 83.76 77.49 M83.76 77.49 C63.38 77.6, 42.9 78.97, 19.37 77.49 M83.76 77.49 C64.44 77.76, 45.81 77.19, 19.37 77.49 M19.37 77.49 C6 79.39, 1.63 72.75, 0 58.12 M19.37 77.49 C5.94 78.54, -0.51 72.78, 0 58.12 M0 58.12 C1.75 44.95, -0.02 34.46, 0 19.37 M0 58.12 C-0.68 43.13, -0.01 29.12, 0 19.37 M0 19.37 C-0.69 6.48, 6.17 0.36, 19.37 0 M0 19.37 C-0.24 6.17, 6.93 0.93, 19.37 0" stroke="#1e1e1e" stroke-width="1" fill="none"></path></g><g stroke-linecap="round"><g transform="translate(596.6635062521436 118.73670503700066) rotate(0 45.18218055242187 -0.07506716812525838)"><path d="M-0.35 0.48 C14.81 0.35, 76.12 -0.26, 91.22 -0.32 M1.66 -0.31 C16.72 -0.3, 76.1 0.82, 90.73 1.13" stroke="#1e1e1e" stroke-width="1" fill="none"></path></g><g transform="translate(596.6635062521436 118.73670503700066) rotate(0 45.18218055242187 -0.07506716812525838)"><path d="M67.07 9.22 C75.42 8.13, 81.92 3.91, 90.73 1.13 M67.07 9.22 C75.56 7.42, 82.39 3.75, 90.73 1.13" stroke="#1e1e1e" stroke-width="1" fill="none"></path></g><g transform="translate(596.6635062521436 118.73670503700066) rotate(0 45.18218055242187 -0.07506716812525838)"><path d="M67.41 -7.88 C75.72 -3.49, 82.11 -2.23, 90.73 1.13 M67.41 -7.88 C75.65 -4.19, 82.37 -2.37, 90.73 1.13" stroke="#1e1e1e" stroke-width="1" fill="none"></path></g></g><mask></mask><g stroke-linecap="round"><g transform="translate(792.6709530098169 114.79600345841277) rotate(0 40.41748381538207 0.12826413728953412)"><path d="M-0.34 -0.81 C13.18 -0.86, 67.57 -0.44, 80.95 -0.07 M1.68 1.38 C15.08 1.49, 66.62 1.58, 80.06 1.29" stroke="#1e1e1e" stroke-width="1" fill="none"></path></g><g transform="translate(792.6709530098169 114.79600345841277) rotate(0 40.41748381538207 0.12826413728953412)"><path d="M56.64 10.03 C61.9 7.82, 69.32 3.64, 80.06 1.29 M56.64 10.03 C66.72 5.85, 75.57 3.8, 80.06 1.29" stroke="#1e1e1e" stroke-width="1" fill="none"></path></g><g transform="translate(792.6709530098169 114.79600345841277) rotate(0 40.41748381538207 0.12826413728953412)"><path d="M56.5 -7.07 C61.82 -4.45, 69.28 -3.79, 80.06 1.29 M56.5 -7.07 C66.5 -4.52, 75.41 0.16, 80.06 1.29" stroke="#1e1e1e" stroke-width="1" fill="none"></path></g></g><mask></mask><g transform="translate(707.6546578073289 119.06177298239163) rotate(0 35.27822881665384 16.05551391477934)"><text x="0" y="12.919671353299014" font-family="Cascadia, Segoe UI Emoji" font-size="13.3795949289828px" fill="#1e1e1e" text-anchor="start" style="white-space: pre;" direction="ltr" dominant-baseline="alphabetic">TLS </text><text x="0" y="28.97518526807837" font-family="Cascadia, Segoe UI Emoji" font-size="13.3795949289828px" fill="#1e1e1e" text-anchor="start" style="white-space: pre;" direction="ltr" dominant-baseline="alphabetic">handshake</text></g><g transform="translate(635.7393350640464 447.4193488775459) rotate(0 50.957441624055605 8.02775695738967)"><text x="0" y="12.919671353299014" font-family="Cascadia, Segoe UI Emoji" font-size="13.3795949289828px" fill="#1e1e1e" text-anchor="start" style="white-space: pre;" direction="ltr" dominant-baseline="alphabetic">Worker thread</text></g><g transform="translate(495.50664826369814 416.4881382382041) rotate(0 47.00390625 16.05551391477934)"><text x="0" y="12.919671353299014" font-family="Cascadia, Segoe UI Emoji" font-size="13.3795949289828px" fill="#1e1e1e" text-anchor="start" style="white-space: pre;" direction="ltr" dominant-baseline="alphabetic">Acceptor</text><text x="0" y="28.97518526807837" font-family="Cascadia, Segoe UI Emoji" font-size="13.3795949289828px" fill="#1e1e1e" text-anchor="start" style="white-space: pre;" direction="ltr" dominant-baseline="alphabetic">on port 6379</text></g><g stroke-linecap="round"><g transform="translate(493.02368984763257 117.9467982317924) rotate(0 43.76240806717982 0.2787373077617872)"><path d="M1.07 1.07 C15.59 0.99, 72.7 0.05, 87.13 0" stroke="#1e1e1e" stroke-width="1.5" fill="none" stroke-dasharray="1.5 7"></path></g></g><mask></mask><g stroke-linecap="round"><g transform="translate(491.35124048150976 170.90770333219996) rotate(0 44.31990820225553 4.459860723068914)"><path d="M-0.37 -1.02 C14.17 0.1, 73.05 6.23, 87.91 7.79" stroke="#1e1e1e" stroke-width="1.5" fill="none" stroke-dasharray="1.5 7"></path></g></g><mask></mask><g transform="translate(903.102255958685 749.7055712896808) rotate(0 188.671875 16.799999999999955)"><text x="0" y="27.0375" font-family="Cascadia, Segoe UI Emoji" font-size="28px" fill="#1e1e1e" text-anchor="start" style="white-space: pre;" direction="ltr" dominant-baseline="alphabetic">SableDb main components</text></g><g stroke-linecap="round" transform="translate(614.75361356246 489.1622157477059) rotate(0 103.62523112484439 118.17115827573161)"><path d="M32 0 C71.2 -0.07, 105.55 -2.04, 175.25 0 M32 0 C87.05 0.04, 142.45 0.81, 175.25 0 M175.25 0 C196.46 1.01, 206.89 12.18, 207.25 32 M175.25 0 C195.1 2.22, 206.33 9.72, 207.25 32 M207.25 32 C207.06 92.21, 205.08 155.99, 207.25 204.34 M207.25 32 C207.8 100.07, 208.13 168.89, 207.25 204.34 M207.25 204.34 C208.78 226.42, 197.11 235.45, 175.25 236.34 M207.25 204.34 C205.11 227.03, 197.65 237, 175.25 236.34 M175.25 236.34 C147.1 235.74, 117.69 236.59, 32 236.34 M175.25 236.34 C136.78 235.87, 98.48 234.58, 32 236.34 M32 236.34 C11.99 236.51, 1.3 225.6, 0 204.34 M32 236.34 C9.32 234.71, -0.16 227.53, 0 204.34 M0 204.34 C1.54 138.02, 2.69 75.63, 0 32 M0 204.34 C-2.27 135.47, -2.21 67.61, 0 32 M0 32 C-1.97 11.66, 9.78 -1.02, 32 0 M0 32 C-0.01 11.65, 11.61 -1.11, 32 0" stroke="#1e1e1e" stroke-width="2" fill="none"></path></g><g stroke-linecap="round" transform="translate(839.4200564335538 489.8288417242684) rotate(0 103.62523112484439 118.17115827573161)"><path d="M32 0 C73.74 -2.1, 111.04 -1.27, 175.25 0 M32 0 C85.25 -0.38, 138.91 0.05, 175.25 0 M175.25 0 C197.26 1.54, 206.97 9.46, 207.25 32 M175.25 0 C198.53 0.6, 208.3 9.78, 207.25 32 M207.25 32 C207.32 80.62, 208.92 127.86, 207.25 204.34 M207.25 32 C207.62 82.43, 206.85 131.9, 207.25 204.34 M207.25 204.34 C207.18 227.59, 196.33 236.99, 175.25 236.34 M207.25 204.34 C209.25 226.57, 198.57 235.37, 175.25 236.34 M175.25 236.34 C125.78 236.25, 78.92 236.96, 32 236.34 M175.25 236.34 C131.64 237.08, 87.95 236.14, 32 236.34 M32 236.34 C12.48 234.35, 1.41 224.67, 0 204.34 M32 236.34 C8.52 237.03, 0.4 224.38, 0 204.34 M0 204.34 C1.11 160.53, -0.56 115.16, 0 32 M0 204.34 C-1.25 166.53, -1.63 130.59, 0 32 M0 32 C0.19 9.12, 9.34 1.75, 32 0 M0 32 C-0.89 9.25, 12.89 -0.36, 32 0" stroke="#1e1e1e" stroke-width="2" fill="none"></path></g><g transform="translate(636.3787226169918 692) rotate(0 84.375 9.600000000000023)"><text x="0" y="15.45" font-family="Cascadia, Segoe UI Emoji" font-size="16px" fill="#1e1e1e" text-anchor="start" style="white-space: pre;" direction="ltr" dominant-baseline="alphabetic">Replication Server</text></g><g transform="translate(878.3787836521481 694) rotate(0 65.625 9.600000000000023)"><text x="0" y="15.45" font-family="Cascadia, Segoe UI Emoji" font-size="16px" fill="#1e1e1e" text-anchor="start" style="white-space: pre;" direction="ltr" dominant-baseline="alphabetic">Evictor thread</text></g><g stroke-linecap="round" transform="translate(417.0453485935543 10) rotate(0 445.6666564941406 392.66668701171875)"><path d="M32 0 C216.38 3.16, 401.66 3.11, 859.33 0 M859.33 0 C880.23 -1.96, 892.05 10.74, 891.33 32 M891.33 32 C890.31 177.91, 890.05 324.32, 891.33 753.33 M891.33 753.33 C889.74 773.89, 881.63 786.01, 859.33 785.33 M859.33 785.33 C546.02 786.45, 233.43 787.57, 32 785.33 M32 785.33 C11.49 784.98, 0.73 773.06, 0 753.33 M0 753.33 C0.52 570.34, 1.16 387.26, 0 32 M0 32 C1.66 10.08, 12.12 -1.98, 32 0" stroke="#1e1e1e" stroke-width="1.5" fill="none" stroke-dasharray="1.5 7"></path></g></svg>