<?xml version="1.0" encoding="UTF-8" standalone="no"?>
<!-- Created with Inkscape (http://www.inkscape.org/) -->

<svg
   width="210mm"
   height="210mm"
   viewBox="0 0 210 210"
   version="1.1"
   id="svg846"
   inkscape:version="1.1 (c68e22c387, 2021-05-23)"
   sodipodi:docname="sabledb.svg"
   inkscape:export-filename="C:\msys64\home\eran\devl\sabledb-website\docs\images\sabledb.png"
   inkscape:export-xdpi="96"
   inkscape:export-ydpi="96"
   xmlns:inkscape="http://www.inkscape.org/namespaces/inkscape"
   xmlns:sodipodi="http://sodipodi.sourceforge.net/DTD/sodipodi-0.dtd"
   xmlns="http://www.w3.org/2000/svg"
   xmlns:svg="http://www.w3.org/2000/svg">
  <sodipodi:namedview
     id="namedview848"
     pagecolor="#ffffff"
     bordercolor="#4c4c4c"
     borderopacity="1"
     inkscape:pageshadow="0"
     inkscape:pageopacity="0"
     inkscape:pagecheckerboard="true"
     inkscape:document-units="mm"
     showgrid="false"
     inkscape:zoom="0.69397447"
     inkscape:cx="396.98867"
     inkscape:cy="560.53935"
     inkscape:window-width="2471"
     inkscape:window-height="1430"
     inkscape:window-x="651"
     inkscape:window-y="186"
     inkscape:window-maximized="0"
     inkscape:current-layer="layer1" />
  <defs
     id="defs843">
    <rect
       x="-25.937553"
       y="936.63385"
       width="966.89435"
       height="190.20872"
       id="rect3736" />
  </defs>
  <g
     inkscape:label="Layer 1"
     inkscape:groupmode="layer"
     id="layer1">
    <g
       transform="matrix(0.02484955,0,0,-0.02591799,-23.697684,245.36032)"
       fill="#000000"
       stroke="none"
       id="g24"
       style="fill:#f57900">
      <path
         d="m 4730,8073 c -49,-18 -133,-96 -164,-154 l -19,-35 -77,22 c -201,58 -394,57 -617,-6 l -73,-20 -60,44 c -82,61 -157,88 -257,94 -159,9 -284,-44 -381,-161 -122,-149 -146,-353 -66,-553 l 26,-66 -46,-98 c -90,-192 -155,-390 -191,-580 -106,-567 -20,-1083 251,-1510 l 55,-88 -21,-62 c -74,-219 -182,-318 -371,-339 -134,-15 -197,-50 -240,-133 -20,-40 -25,-120 -10,-161 19,-50 71,-96 126,-113 78,-22 412,-5 502,26 119,41 238,136 283,227 51,102 64,246 35,370 -14,59 -106,258 -145,313 -50,71 -164,310 -200,420 -123,372 -117,794 16,1190 51,150 112,300 124,300 4,0 15,-9 26,-21 33,-36 176,-125 253,-158 41,-17 75,-30 76,-29 1,2 14,42 29,91 89,278 354,435 625,372 159,-38 292,-150 394,-334 l 34,-62 v 100 c 1,117 14,182 56,271 27,58 114,160 137,160 15,0 88,-156 119,-255 33,-109 61,-232 61,-271 0,-23 -1,-24 -16,-10 -56,57 -160,-2 -180,-103 -11,-52 14,-117 59,-157 38,-35 42,-36 98,-31 l 58,5 11,-72 c 7,-39 20,-110 31,-158 26,-121 26,-125 -11,-95 -42,36 -94,50 -155,44 -67,-7 -111,-29 -135,-70 -24,-39 -26,-104 -4,-135 18,-26 64,-52 96,-53 16,-1 9,-6 -22,-16 -75,-26 -387,-22 -518,6 -294,62 -484,162 -679,357 l -93,92 v -37 c 0,-96 60,-235 138,-323 168,-186 511,-308 866,-308 h 132 l 26,-97 c 38,-139 48,-201 55,-348 4,-91 2,-137 -6,-153 -6,-12 -71,-62 -145,-112 -221,-149 -339,-283 -476,-540 -87,-163 -113,-201 -193,-286 -76,-82 -120,-112 -227,-154 -150,-60 -224,-163 -205,-285 9,-67 60,-135 125,-167 l 54,-28 h 287 c 322,0 292,-5 501,88 226,101 312,122 494,122 125,0 209,-13 434,-70 346,-87 472,-108 705,-117 445,-17 869,116 1185,371 344,278 566,674 620,1109 19,150 8,413 -23,557 -169,777 -806,1370 -1592,1481 -132,18 -407,16 -544,-5 -147,-23 -333,-74 -468,-130 l -108,-44 -7,27 c -4,14 -17,64 -28,111 -12,46 -34,117 -49,157 l -29,72 20,58 c 26,77 48,194 48,251 0,66 -25,174 -54,237 -70,153 -217,220 -366,168 z m 146,-192 c 50,-31 78,-100 82,-208 3,-61 1,-93 -6,-93 -6,0 -13,8 -16,18 -7,22 -80,99 -154,163 l -54,47 16,30 c 32,61 78,76 132,43 z m -1341,-86 c 59,-29 123,-98 156,-170 49,-103 56,-273 17,-408 -17,-61 -23,-63 -51,-14 -52,89 -209,207 -274,207 -35,0 -57,-42 -50,-95 7,-46 46,-135 76,-169 36,-42 -26,3 -86,62 -138,136 -187,315 -124,457 25,56 99,131 143,144 49,15 147,8 193,-14 z m 1446,-955 c 23,-13 25,-58 3,-67 -34,-13 -77,35 -55,61 16,19 25,20 52,6 z m 1457,-144 c 104,-29 229,-78 258,-102 19,-15 19,-15 -1,-9 -50,17 -199,35 -289,35 -329,0 -606,-107 -809,-314 -175,-178 -274,-372 -311,-611 l -14,-90 -3,70 c -10,240 25,415 121,592 128,238 327,388 594,449 100,23 338,12 454,-20 z m 415,-442 c 149,-33 301,-124 400,-236 103,-118 159,-223 202,-382 30,-108 32,-151 4,-82 -51,126 -166,281 -272,365 -143,115 -297,171 -472,171 -185,0 -331,-55 -462,-175 -133,-122 -201,-264 -210,-446 -6,-110 8,-208 42,-291 12,-32 21,-58 19,-58 -2,0 -27,14 -56,32 -29,17 -82,43 -118,58 l -65,27 -18,84 c -42,203 26,449 175,635 122,151 295,258 483,299 86,19 261,18 348,-1 z M 5645,5060 c 131,-33 269,-89 486,-196 289,-144 377,-174 564,-198 l 100,-12 -90,-33 c -92,-33 -242,-61 -330,-61 -79,0 -231,26 -345,60 -429,126 -473,135 -695,134 -149,-1 -182,-4 -266,-27 -194,-51 -333,-129 -441,-246 -49,-54 -108,-144 -108,-165 0,-3 35,19 78,48 198,137 374,193 634,203 216,8 394,-20 638,-100 397,-131 609,-175 786,-164 46,2 84,3 84,2 0,-2 -42,-13 -92,-26 -73,-17 -124,-22 -238,-22 -164,-1 -277,18 -478,79 -259,80 -322,96 -452,116 -215,32 -442,18 -640,-41 -176,-52 -286,-115 -401,-231 l -87,-87 -11,36 c -22,66 -25,171 -7,241 25,102 106,255 179,341 156,182 393,320 626,364 119,22 391,15 506,-15 z m -530,-870 c 144,-12 259,-39 505,-118 330,-107 446,-131 635,-133 l 100,-1 -75,-21 c -63,-16 -107,-20 -270,-21 -220,-1 -249,4 -570,84 -244,61 -339,74 -505,67 -197,-8 -326,-41 -528,-136 -59,-27 -107,-45 -107,-40 0,6 36,46 80,90 68,67 97,87 193,133 126,62 204,85 327,96 47,4 87,8 90,8 3,1 59,-3 125,-8 z"
         id="path2"
         style="fill:#f57900" />
      <path
         d="m 4116,6865 c -21,-7 -52,-26 -68,-42 -87,-81 -75,-231 24,-299 35,-25 51,-29 108,-29 76,0 120,22 158,81 64,99 15,240 -100,288 -45,19 -71,19 -122,1 z m 127,-56 c 15,-22 17,-30 8,-48 -15,-27 -39,-27 -68,1 -26,24 -29,48 -11,66 19,19 48,10 71,-19 z"
         id="path4"
         style="fill:#f57900" />
      <path
         d="m 3900,6476 c -18,-23 -8,-59 22,-75 24,-14 28,-14 47,3 23,21 27,56 9,74 -17,17 -63,15 -78,-2 z"
         id="path6"
         style="fill:#f57900" />
      <path
         d="m 4058,6394 c -47,-25 -31,-94 21,-94 35,0 53,20 49,56 -5,40 -36,57 -70,38 z"
         id="path8"
         style="fill:#f57900" />
      <path
         id="path10"
         style="fill:#f57900;stroke-width:0.133333"
         transform="matrix(7.5,0,0,-7.5,0,10240)"
         d="m 328.52539,975.06641 c -2.1553,0.0312 -4.04401,0.054 -4.90234,0.0449 -0.34893,0.1601 -0.64517,0.26159 -0.96094,0.38476 -0.0614,0.27218 -0.10276,0.59008 -0.1582,0.87305 2.00632,-0.44337 4.01164,-0.88811 6.02148,-1.30273 z" />
    </g>
    <text
       xml:space="preserve"
       transform="matrix(0.4317794,0,0,0.36506526,54.888922,-191.57858)"
       id="text3734"
       style="font-style:normal;font-weight:normal;font-size:81.0012px;line-height:1.25;font-family:sans-serif;letter-spacing:0px;word-spacing:0px;white-space:pre;shape-inside:url(#rect3736);fill:#f57900;fill-opacity:1;stroke:none"><tspan
         x="-25.9375"
         y="1010.5346"
         id="tspan48632"><tspan
           style="font-weight:bold;font-family:Iosevka;-inkscape-font-specification:'Iosevka Bold'"
           id="tspan48630">SableDB</tspan></tspan></text>
  </g>
</svg>
